<svg width="16" height="10" viewBox="0 0 16 10" fill="none" xmlns="http://www.w3.org/2000/svg">
<path id="Vector" fill-rule="evenodd" clip-rule="evenodd" d="M0.506809 0.795905C0.434966 0.867053 0.377934 0.951735 0.339014 1.04505C0.300094 1.13838 0.280054 1.23848 0.280054 1.3396C0.280054 1.44071 0.300094 1.54082 0.339014 1.63414C0.377934 1.72746 0.434966 1.81214 0.506809 1.88329L7.47317 8.80501C7.61873 8.94931 7.8154 9.03027 8.02037 9.03027C8.22534 9.03027 8.42201 8.94931 8.56757 8.80501L15.5339 1.88329C15.6056 1.81191 15.6625 1.72708 15.7012 1.63367C15.74 1.54026 15.76 1.44011 15.76 1.33897C15.76 1.14277 15.6851 0.946385 15.5325 0.796085C15.3869 0.651782 15.1903 0.570819 14.9853 0.570819C14.7803 0.570819 14.5837 0.651782 14.4381 0.796085L8.01965 7.17331L1.59977 0.794466C1.45412 0.650685 1.25762 0.570198 1.05296 0.570501C0.848297 0.570806 0.652028 0.651693 0.506809 0.795905Z" fill="black"/>
</svg>
