<svg width="221" height="31" viewBox="0 0 221 31" fill="none" xmlns="http://www.w3.org/2000/svg">
<g id="image" clip-path="url(#clip0_1_840)">
<path id="Vector" d="M62.4625 20.3117C65.3254 20.3117 67.6462 17.9909 67.6462 15.128C67.6462 12.2651 65.3254 9.94434 62.4625 9.94434C59.5997 9.94434 57.2789 12.2651 57.2789 15.128C57.2789 17.9909 59.5997 20.3117 62.4625 20.3117Z" fill="white"/>
<path id="Vector_2" d="M56.4791 20.3119C55.1287 20.276 53.8456 19.7143 52.9032 18.7464C51.9607 17.7786 51.4333 16.481 51.4333 15.1301C51.4333 13.7792 51.9607 12.4816 52.9032 11.5138C53.8456 10.5459 55.1287 9.98418 56.4791 9.94824V20.3119Z" fill="white"/>
<path id="Vector_3" d="M68.4423 26.0272V21.1113H73.3619C73.3619 21.7572 73.2346 22.3967 72.9873 22.9934C72.74 23.5901 72.3776 24.1321 71.9207 24.5887C71.4639 25.0452 70.9215 25.4072 70.3247 25.6541C69.7278 25.9009 69.0882 26.0277 68.4423 26.0272Z" fill="white"/>
<path id="Vector_4" d="M56.4791 4.22461V9.14782H51.5522C51.5522 8.50099 51.6797 7.86049 51.9274 7.26294C52.175 6.66539 52.538 6.1225 52.9955 5.66529C53.4531 5.20808 53.9962 4.84551 54.594 4.59831C55.1917 4.35112 55.8323 4.22413 56.4791 4.22461Z" fill="white"/>
<path id="Vector_5" d="M56.4791 26.0272V21.1113H51.5559C51.5559 21.7575 51.6833 22.3973 51.9308 22.9942C52.1783 23.5911 52.5411 24.1334 52.9983 24.59C53.4556 25.0465 53.9984 25.4085 54.5956 25.6551C55.1929 25.9017 55.8329 26.0282 56.4791 26.0272Z" fill="white"/>
<path id="Vector_6" d="M74.4294 19.5813V10.6777C75.2018 11.1365 75.8416 11.7883 76.286 12.5692C76.7304 13.35 76.9641 14.233 76.9641 15.1314C76.9641 16.0298 76.7304 16.9128 76.286 17.6936C75.8416 18.4744 75.2018 19.1262 74.4294 19.585V19.5813Z" fill="white"/>
<path id="Vector_7" d="M58.0089 3.16108H66.9162C66.4567 2.38954 65.8046 1.75061 65.0239 1.30689C64.2432 0.863172 63.3606 0.629883 62.4625 0.629883C61.5645 0.629883 60.6819 0.863172 59.9012 1.30689C59.1205 1.75061 58.4684 2.38954 58.0089 3.16108Z" fill="white"/>
<path id="Vector_8" d="M66.8501 27.0986H57.9429C58.4017 27.8711 59.0535 28.5109 59.8343 28.9553C60.6151 29.3997 61.4981 29.6333 62.3965 29.6333C63.2949 29.6333 64.1779 29.3997 64.9587 28.9553C65.7395 28.5109 66.3913 27.8711 66.8501 27.0986Z" fill="white"/>
<path id="Vector_9" d="M67.6426 21.1113C67.661 21.8034 67.5406 22.4922 67.2884 23.137C67.0363 23.7818 66.6576 24.3695 66.1746 24.8656C65.6916 25.3616 65.1141 25.7558 64.4762 26.025C63.8384 26.2942 63.1531 26.4329 62.4607 26.4329C61.7684 26.4329 61.0831 26.2942 60.4452 26.025C59.8073 25.7558 59.2299 25.3616 58.7469 24.8656C58.2639 24.3695 57.8851 23.7818 57.633 23.137C57.3809 22.4922 57.2605 21.8034 57.2789 21.1113H67.6426Z" fill="white"/>
<path id="Vector_10" d="M68.446 20.3119C69.7964 20.276 71.0795 19.7143 72.0219 18.7464C72.9644 17.7786 73.4918 16.481 73.4918 15.1301C73.4918 13.7792 72.9644 12.4816 72.0219 11.5138C71.0795 10.5459 69.7964 9.98418 68.446 9.94824V20.3119Z" fill="white"/>
<path id="Vector_11" d="M67.6426 9.15555C67.661 8.46346 67.5406 7.77469 67.2884 7.1299C67.0363 6.4851 66.6576 5.89735 66.1746 5.40133C65.6916 4.9053 65.1141 4.51106 64.4762 4.24187C63.8384 3.97267 63.1531 3.83398 62.4607 3.83398C61.7684 3.83398 61.0831 3.97267 60.4452 4.24187C59.8073 4.51106 59.2299 4.9053 58.7469 5.40133C58.2639 5.89735 57.8851 6.4851 57.633 7.1299C57.3809 7.77469 57.2605 8.46346 57.2789 9.15555H67.6426Z" fill="white"/>
<path id="Vector_12" d="M50.492 19.5813V10.6777C49.7196 11.1365 49.0798 11.7883 48.6354 12.5692C48.191 13.35 47.9573 14.233 47.9573 15.1314C47.9573 16.0298 48.191 16.9128 48.6354 17.6936C49.0798 18.4744 49.7196 19.1262 50.492 19.585V19.5813Z" fill="white"/>
<path id="Vector_13" d="M73.3655 9.15196H68.446V4.23242C69.7507 4.23242 71.002 4.75073 71.9246 5.67332C72.8472 6.59592 73.3655 7.84722 73.3655 9.15196Z" fill="white"/>
<path id="Vector_14" d="M87.2547 7.79809H90.3987C93.5206 7.79809 97.2442 7.69537 97.2442 11.7308C97.2602 12.5667 96.9606 13.378 96.4051 14.0028C95.8496 14.6277 95.079 15.0202 94.247 15.1022V15.1426C95.0394 15.2049 95.4943 15.9973 95.7878 16.6393L98.1173 22.3183H94.8706L93.1244 17.7876C92.7062 16.7054 92.332 16.2908 91.1067 16.2908H90.1712V22.3256H87.2547V7.79809ZM90.1675 13.998H91.125C92.5594 13.998 94.2066 13.7889 94.2066 11.9803C94.2066 10.2303 92.5851 10.0873 91.125 10.0873H90.1675V13.998Z" fill="white"/>
<path id="Vector_15" d="M100.443 12.1711C101.619 11.654 102.886 11.3783 104.17 11.3604C107.435 11.3604 108.789 12.7141 108.789 15.8764V17.2484C108.789 18.3306 108.811 19.1414 108.829 19.9338C108.848 20.7262 108.892 21.4929 108.954 22.3257H106.5C106.425 21.7944 106.384 21.259 106.375 20.7225H106.331C105.986 21.2875 105.501 21.7535 104.922 22.075C104.344 22.3964 103.691 22.5625 103.029 22.5568C101.137 22.5568 99.2839 21.4122 99.2839 19.3725C99.2442 18.7368 99.3983 18.104 99.7258 17.5578C100.053 17.0115 100.539 16.5774 101.118 16.3129C102.178 15.792 103.55 15.6893 104.717 15.6893H106.254C106.254 13.9614 105.487 13.3781 103.84 13.3781C102.639 13.411 101.48 13.8289 100.535 14.5703L100.443 12.1711ZM103.712 20.5354C104.091 20.5446 104.467 20.4624 104.808 20.2958C105.149 20.1291 105.445 19.8829 105.671 19.5779C106.1 18.9275 106.303 18.1542 106.25 17.3768H105.044C103.796 17.3768 101.944 17.5859 101.944 19.2111C101.94 20.1392 102.71 20.5354 103.712 20.5354Z" fill="white"/>
<path id="Vector_16" d="M118.669 21.1186H118.628C118.233 21.6063 117.727 21.9935 117.153 22.2485C116.58 22.5036 115.954 22.6192 115.327 22.586C112.025 22.586 110.833 19.8823 110.833 16.9474C110.833 14.0126 112.039 11.3712 115.327 11.3712C115.942 11.3426 116.556 11.4639 117.114 11.7246C117.673 11.9853 118.159 12.3777 118.533 12.868H118.573V6.71582H121.365V22.3256H118.658L118.669 21.1186ZM116.101 20.4106C117.935 20.4106 118.555 18.4552 118.555 16.9364C118.555 15.4177 117.847 13.5247 116.057 13.5247C114.266 13.5247 113.745 15.502 113.745 16.9364C113.745 18.3708 114.277 20.4106 116.108 20.4106H116.101Z" fill="white"/>
<path id="Vector_17" d="M124.3 11.606H127.088V22.3256H124.3V11.606ZM124.3 6.9873H127.088V9.65068H124.3V6.9873Z" fill="white"/>
<path id="Vector_18" d="M134.931 11.3564C138.116 11.3564 140.552 13.4989 140.552 17.039C140.552 20.117 138.49 22.5749 134.931 22.5749C131.373 22.5749 129.333 20.117 129.333 17.039C129.333 13.4989 131.765 11.3564 134.931 11.3564ZM134.931 20.4105C137.077 20.4105 137.639 18.4955 137.639 16.7052C137.639 15.0617 136.766 13.5209 134.931 13.5209C133.097 13.5209 132.246 15.102 132.246 16.7052C132.246 18.4735 132.818 20.4105 134.931 20.4105Z" fill="white"/>
<path id="Vector_19" d="M142.019 17.8722V15.583H147.492V17.8722H142.019Z" fill="white"/>
<path id="Vector_20" d="M160.472 22.1167C159.392 22.3938 158.285 22.5476 157.17 22.5753C152.467 22.5753 149.202 20.2237 149.202 15.3115C149.202 10.3369 152.24 7.54883 157.17 7.54883C158.298 7.55351 159.415 7.75718 160.472 8.15047L160.263 10.6047C159.306 10.065 158.22 9.79846 157.122 9.83434C154.125 9.83434 152.254 12.1235 152.254 15.0987C152.254 18.0739 154.089 20.2787 157.185 20.2787C158.263 20.291 159.334 20.0877 160.332 19.6808L160.472 22.1167Z" fill="white"/>
<path id="Vector_21" d="M162.838 12.1709C164.014 11.6518 165.283 11.3748 166.569 11.3564C169.838 11.3564 171.188 12.7101 171.188 15.8724V17.2482C171.188 18.3304 171.21 19.1411 171.232 19.9335C171.254 20.726 171.294 21.4927 171.356 22.3254H168.902C168.828 21.7941 168.787 21.2587 168.777 20.7223H168.737C168.392 21.2873 167.907 21.7533 167.328 22.0747C166.749 22.3962 166.097 22.5622 165.435 22.5566C163.542 22.5566 161.69 21.412 161.69 19.3723C161.65 18.7366 161.804 18.1038 162.132 17.5575C162.459 17.0113 162.945 16.5772 163.524 16.3127C164.584 15.7917 165.96 15.689 167.123 15.689H168.664C168.664 13.9611 167.893 13.3778 166.25 13.3778C165.053 13.4044 163.896 13.8132 162.948 14.5444L162.838 12.1709ZM166.103 20.5352C166.482 20.5435 166.857 20.4609 167.197 20.2943C167.537 20.1277 167.833 19.882 168.058 19.5777C168.489 18.9277 168.694 18.1544 168.642 17.3766H167.435C166.184 17.3766 164.335 17.5857 164.335 19.2108C164.339 20.139 165.102 20.5352 166.107 20.5352H166.103Z" fill="white"/>
<path id="Vector_22" d="M173.924 11.6066H176.566V13.074H176.606C177.483 11.8451 178.668 11.3682 180.124 11.3682C182.663 11.3682 183.767 13.1584 183.767 15.5723V22.3262H180.979V16.6032C180.979 15.2935 180.957 13.5253 179.17 13.5253C177.153 13.5253 176.716 15.7264 176.716 17.0838V22.3262H173.928L173.924 11.6066Z" fill="white"/>
<path id="Vector_23" d="M187.113 12.1711C188.287 11.6544 189.554 11.3787 190.837 11.3604C194.105 11.3604 195.455 12.7141 195.455 15.8764V17.2484C195.455 18.3306 195.477 19.1414 195.496 19.9338C195.514 20.7262 195.558 21.4929 195.624 22.3257H193.166C193.092 21.7944 193.05 21.259 193.041 20.7225H193.001C192.656 21.2875 192.171 21.7535 191.592 22.075C191.013 22.3964 190.361 22.5625 189.699 22.5568C187.806 22.5568 185.954 21.4122 185.954 19.3725C185.914 18.7369 186.069 18.1043 186.396 17.5582C186.724 17.012 187.209 16.5778 187.788 16.3129C188.852 15.792 190.224 15.6893 191.387 15.6893H192.928C192.928 13.9614 192.157 13.3781 190.514 13.3781C189.317 13.4044 188.16 13.8132 187.212 14.5447L187.113 12.1711ZM190.382 20.5354C190.76 20.544 191.136 20.4615 191.476 20.2949C191.816 20.1283 192.112 19.8824 192.337 19.5779C192.768 18.9283 192.973 18.1547 192.92 17.3768H191.713C190.466 17.3768 188.613 17.5859 188.613 19.2111C188.613 20.1392 189.384 20.5354 190.382 20.5354Z" fill="white"/>
<path id="Vector_24" d="M205.338 21.1186H205.298C204.903 21.6065 204.397 21.9939 203.823 22.2489C203.25 22.504 202.623 22.6195 201.996 22.586C198.695 22.586 197.502 19.8823 197.502 16.9474C197.502 14.0126 198.709 11.3712 201.996 11.3712C202.611 11.3432 203.224 11.4648 203.782 11.7254C204.34 11.9861 204.826 12.3782 205.199 12.868H205.243V6.71582H208.031V22.3256H205.327L205.338 21.1186ZM202.77 20.4106C204.605 20.4106 205.225 18.4552 205.225 16.9364C205.225 15.4177 204.517 13.5247 202.726 13.5247C200.936 13.5247 200.415 15.502 200.415 16.9364C200.415 18.3708 200.947 20.4106 202.781 20.4106H202.77Z" fill="white"/>
<path id="Vector_25" d="M211.388 12.1711C212.562 11.6544 213.828 11.3787 215.111 11.3604C218.38 11.3604 219.73 12.7141 219.73 15.8764V17.2484C219.73 18.3306 219.752 19.1414 219.771 19.9338C219.789 20.7262 219.833 21.4929 219.895 22.3257H217.441C217.366 21.7944 217.325 21.259 217.316 20.7225H217.276C216.931 21.2875 216.446 21.7535 215.867 22.075C215.288 22.3964 214.636 22.5625 213.974 22.5568C212.059 22.5751 210.225 21.4306 210.225 19.3908C210.186 18.7552 210.34 18.1227 210.667 17.5765C210.995 17.0303 211.48 16.5962 212.059 16.3313C213.119 15.8103 214.491 15.7076 215.658 15.7076H217.195C217.195 13.9797 216.425 13.3964 214.781 13.3964C213.584 13.4232 212.428 13.832 211.48 14.563L211.388 12.1711ZM214.653 20.5354C215.032 20.544 215.407 20.4615 215.747 20.2949C216.087 20.1283 216.383 19.8824 216.608 19.5779C217.039 18.9281 217.244 18.1546 217.192 17.3768H215.985C214.737 17.3768 212.885 17.5859 212.885 19.2111C212.885 20.1392 213.655 20.5354 214.657 20.5354H214.653Z" fill="white"/>
<path id="Vector_26" d="M12.0308 22.1611C10.9511 22.4383 9.84348 22.5921 8.72912 22.6197C4.01869 22.6197 0.75 20.2681 0.75 15.3559C0.75 10.3814 3.78757 7.60059 8.72179 7.60059C9.84916 7.60549 10.9668 7.80916 12.0235 8.20223L11.8144 10.6565C10.8568 10.1164 9.76921 9.84992 8.67043 9.8861C5.67321 9.8861 3.80224 12.1753 3.80224 15.1505C3.80224 18.1257 5.63653 20.3342 8.73279 20.3342C9.82417 20.349 10.9073 20.1431 11.9171 19.7289L12.0308 22.1611Z" fill="white"/>
<path id="Vector_27" d="M14.166 7.8418H19.2432C21.1179 7.8418 23.9243 8.38108 23.9243 11.5654C23.9243 13.2933 22.7577 14.5002 21.0335 14.8121V14.8524C23.0109 15.0395 24.3646 16.3712 24.3646 18.1541C24.3646 21.8227 21.0629 22.3583 19.2286 22.3583H14.166V7.8418ZM17.0788 20.0728H18.4508C19.8045 20.0728 21.4481 19.7389 21.4481 18.0551C21.4481 16.1621 19.9073 15.8539 18.4508 15.8539H17.0788V20.0728ZM17.0788 13.7042H18.2637C19.4927 13.7042 21.0115 13.4327 21.0115 11.9359C21.0115 10.252 19.5441 10.1273 18.2014 10.1273H17.0788V13.7042Z" fill="white"/>
<path id="Vector_28" d="M37.4356 22.1611C36.3559 22.4383 35.2483 22.5921 34.1339 22.6197C29.4308 22.6197 26.1621 20.2681 26.1621 15.3559C26.1694 10.3814 29.207 7.60059 34.1339 7.60059C35.2613 7.60549 36.379 7.80916 37.4356 8.20223L37.2265 10.6565C36.2689 10.1164 35.1813 9.84992 34.0825 9.8861C31.0853 9.8861 29.2144 12.1753 29.2144 15.1505C29.2144 18.1257 31.0376 20.3305 34.1339 20.3305C35.2253 20.3452 36.3084 20.1393 37.3182 19.7252L37.4356 22.1611Z" fill="white"/>
</g>
<defs>
<clipPath id="clip0_1_840">
<rect width="220" height="30.0565" fill="white" transform="translate(0.75 0.629883)"/>
</clipPath>
</defs>
</svg>
