<svg width="72" height="19" viewBox="0 0 72 19" fill="none" xmlns="http://www.w3.org/2000/svg">
<g id="Frame">
<path id="Fill-1" d="M12.7647 9.45708C12.7647 11.219 11.3364 12.6472 9.57475 12.6472C7.81306 12.6472 6.38483 11.219 6.38483 9.45708C6.38483 7.69539 7.81306 6.26739 9.57475 6.26739C11.3364 6.26739 12.7647 7.69539 12.7647 9.45708Z" fill="#D8232A"/>
<path id="Fill-2" d="M5.89306 12.647C4.12999 12.647 2.70129 11.219 2.70129 9.45754C2.70129 7.69561 4.12999 6.266 5.89283 6.266L5.89306 12.647Z" fill="#D8232A"/>
<path id="Fill-3" d="M13.2597 16.1665L13.2604 13.1395L16.2888 13.1409C16.2888 14.8142 14.9323 16.1665 13.2597 16.1665Z" fill="#D8232A"/>
<path id="Fill-4" d="M5.89284 2.74469V5.77538L2.86053 5.77584C2.86053 4.10207 4.21861 2.74469 5.89284 2.74469Z" fill="#D8232A"/>
<path id="Fill-5" d="M5.89305 16.1683V13.1395L2.86121 13.1409C2.86121 14.8139 4.2179 16.1683 5.89305 16.1683Z" fill="#D8232A"/>
<path id="Fill-6" d="M16.9455 12.1986L16.9439 6.71623C17.8778 7.27239 18.5034 8.29169 18.5034 9.45754C18.5034 10.6229 17.8778 11.6413 16.9455 12.1986Z" fill="#D8232A"/>
<path id="Fill-7" d="M6.83484 2.08861L12.3175 2.08954C11.7611 1.15561 10.7429 0.531151 9.57684 0.531151C8.41099 0.531151 7.39122 1.15561 6.83484 2.08861Z" fill="#D8232A"/>
<path id="Fill-8" d="M12.2771 16.8255L6.79352 16.8248C7.35013 17.7583 8.36898 18.3842 9.53529 18.3842C10.7011 18.3842 11.72 17.759 12.2771 16.8255Z" fill="#D8232A"/>
<path id="Fill-9" d="M12.7658 13.1408C12.7658 14.9032 11.3381 16.331 9.5766 16.331C7.81421 16.331 6.38483 14.9032 6.38483 13.1408H12.7658Z" fill="#D8232A"/>
<path id="Fill-10" d="M13.2604 12.647C15.0221 12.647 16.4515 11.219 16.4515 9.45754C16.4515 7.69561 15.0221 6.266 13.2604 6.266V12.647Z" fill="#D8232A"/>
<path id="Fill-11" d="M12.7658 5.77908C12.7658 4.01739 11.3381 2.58939 9.5766 2.58939C7.81421 2.58939 6.38483 4.01739 6.38483 5.77908H12.7658Z" fill="#D8232A"/>
<path id="Fill-12" d="M2.20768 12.1986L2.20907 6.71623C1.27491 7.27239 0.650452 8.29169 0.650452 9.45754C0.650452 10.6229 1.27491 11.6413 2.20768 12.1986Z" fill="#D8232A"/>
<path id="Fill-13" d="M16.289 5.777L13.2604 5.77538L13.2597 2.74746C14.9326 2.74746 16.289 4.10323 16.289 5.777Z" fill="#D8232A"/>
<path id="Fill-14" d="M30.4725 18.3791C25.3926 18.3791 21.6198 14.4583 21.6198 9.50185V9.45246C21.6198 4.54539 25.3188 0.525848 30.6204 0.525848C33.8752 0.525848 35.8234 1.61093 37.4263 3.18916L35.0097 5.97546C33.6781 4.76739 32.3219 4.02754 30.5958 4.02754C27.686 4.02754 25.5899 6.44416 25.5899 9.40331V9.45246C25.5899 12.4116 27.6366 14.8776 30.5958 14.8776C32.5684 14.8776 33.7769 14.0884 35.1331 12.8554L37.5495 15.2967C35.7742 17.1955 33.8014 18.3791 30.4725 18.3791Z" fill="#1A1919"/>
<path id="Fill-15" d="M50.0923 12.9465C50.0923 11.7479 49.1999 11.0083 47.1848 11.0083H42.6451V14.936H47.3125C49.0469 14.936 50.0923 14.3238 50.0923 12.9978V12.9465ZM49.0977 5.80539C49.0977 4.63216 48.1797 3.96916 46.5218 3.96916H42.6451V7.74362H46.2668C48.0011 7.74362 49.0977 7.18262 49.0977 5.85639V5.80539ZM47.3125 18.3791H38.8195V0.525848H47.1085C50.7555 0.525848 53 2.33669 53 5.14239V5.19339C53 7.20823 51.9288 8.33023 50.6535 9.04446C52.7194 9.83508 53.9946 11.0337 53.9946 13.4314V13.4824C53.9946 16.7468 51.3421 18.3791 47.3125 18.3791Z" fill="#1A1919"/>
<path id="Fill-16" d="M63.9394 18.3791C58.8597 18.3791 55.0869 14.4583 55.0869 9.50185V9.45246C55.0869 4.54539 58.7856 0.525848 64.0875 0.525848C67.3423 0.525848 69.2905 1.61093 70.8934 3.18916L68.4768 5.97546C67.145 4.76739 65.7888 4.02754 64.0626 4.02754C61.1531 4.02754 59.057 6.44416 59.057 9.40331V9.45246C59.057 12.4116 61.1037 14.8776 64.0626 14.8776C66.0355 14.8776 67.2438 14.0884 68.6 12.8554L71.0166 15.2967C69.2413 17.1955 67.2682 18.3791 63.9394 18.3791Z" fill="#1A1919"/>
</g>
</svg>
