<svg width="83" height="21" viewBox="0 0 83 21" fill="none" xmlns="http://www.w3.org/2000/svg">
<g id="Frame">
<g id="Group">
<path id="Vector" d="M15.094 0.508H17.276V20.345H15.491L2.682 4.079V20.345H0.5V0.508H2.597L15.094 16.406V0.508ZM35.885 2.548H23.785V9.321H34.61V11.361H23.785V18.304H36.027V20.344H21.547V0.509H35.885V2.548ZM51.683 0.512H53.506L58.894 16.926L64.529 0.513H66.857L59.82 20.349H57.94L52.552 4.412L47.137 20.349H45.285L38.251 0.513H40.664L46.296 16.926L51.683 0.512ZM75.44 9.372C79.738 10.308 81.723 11.879 81.723 14.854C81.723 18.188 78.967 20.337 75.138 20.337C72.079 20.337 69.572 19.317 67.258 17.251L68.608 15.653C70.619 17.472 72.548 18.381 75.22 18.381C77.81 18.381 79.518 17.031 79.518 15.075C79.518 13.256 78.554 12.237 74.504 11.383C70.068 10.418 68.029 8.986 68.029 5.79C68.029 2.704 70.702 0.5 74.366 0.5C77.176 0.5 79.188 1.299 81.144 2.87L79.876 4.55C78.086 3.09 76.295 2.456 74.311 2.456C71.804 2.456 70.206 3.834 70.206 5.597C70.206 7.443 71.196 8.462 75.44 9.372Z" fill="#FFFFFE"/>
</g>
</g>
</svg>
